<?xml version="1.0" encoding="utf-8"?>
<!-- Generator: Adobe Illustrator 18.1.0, SVG Export Plug-In . SVG Version: 6.00 Build 0)  -->
<svg version="1.1" id="Layer_1" xmlns="http://www.w3.org/2000/svg" xmlns:xlink="http://www.w3.org/1999/xlink" x="0px" y="0px"
	 viewBox="0 0 70.3 66.7" enable-background="new 0 0 70.3 66.7" xml:space="preserve">
<path fill="#231F20" d="M70.3,65.6c0,0-13.2,0.4-22.8-11.4c0.7-0.1,1.3-0.2,2-0.5c4.6,4.6,11.9,9.4,20.8,6.5c0,0-9.6,0.4-15.1-11.9
	c0.3-0.8,0.6-1.6,0.7-2.5l3.8-30.7c0.6-5.2-3.1-10-8.3-10.6L14.5,0.1C9.3-0.6,4.5,3.2,3.8,8.4L0.1,39c-0.6,5.2,3.1,10,8.3,10.6
	l21,2.6C36.3,59.1,51.1,70.4,70.3,65.6z M10.9,9.2c0.2-1.4,1.4-2.3,2.8-2.2l29.9,3.7L30.2,27.8L10,16.5L10.9,9.2z M7.1,39.9
	l1.8-14.7l20.4,11.4c0.5,0.3,1,0.4,1.5,0.5c1.4,0.2,2.8-0.4,3.7-1.5l17.8-22.7c0.3,0.4,0.4,1,0.3,1.5L48.8,45
	c-0.1,0.8-0.6,1.5-1.2,1.8H44c0,0,0,0,0,0.1L9.2,42.7C7.9,42.5,6.9,41.3,7.1,39.9z"/>
</svg>
